<?xml version="1.0" encoding="UTF-8" standalone="no"?>
<!-- Created with Inkscape (http://www.inkscape.org/) -->

<svg
   width="192.18571mm"
   height="285.185mm"
   viewBox="0 0 192.18571 285.185"
   version="1.1"
   id="svg1"
   inkscape:export-filename="Ć.png"
   inkscape:export-xdpi="96"
   inkscape:export-ydpi="96"
   xmlns:inkscape="http://www.inkscape.org/namespaces/inkscape"
   xmlns:sodipodi="http://sodipodi.sourceforge.net/DTD/sodipodi-0.dtd"
   xmlns="http://www.w3.org/2000/svg"
   xmlns:svg="http://www.w3.org/2000/svg">
  <sodipodi:namedview
     id="namedview1"
     pagecolor="#ffffff"
     bordercolor="#999999"
     borderopacity="1"
     inkscape:showpageshadow="2"
     inkscape:pageopacity="0"
     inkscape:pagecheckerboard="0"
     inkscape:deskcolor="#d1d1d1"
     inkscape:document-units="mm"
     inkscape:zoom="1.0520974"
     inkscape:cx="348.35179"
     inkscape:cy="614.48686"
     inkscape:window-width="2560"
     inkscape:window-height="1377"
     inkscape:window-x="-8"
     inkscape:window-y="-8"
     inkscape:window-maximized="1"
     inkscape:current-layer="g5" />
  <defs
     id="defs1" />
  <g
     inkscape:label="Warstwa 1"
     inkscape:groupmode="layer"
     id="layer1"
     transform="translate(-9.3575098,-2.8530428)">
    <g
       id="g5"
       transform="rotate(14.853907,81.18205,-23.688991)"
       style="stroke-width:6.4;stroke-dasharray:none">
      <g
         id="g34"
         style="stroke-width:5;stroke-dasharray:none"
         transform="translate(279.00978,42.610809)">
        <path
           style="fill:none;stroke:#000000;stroke-width:5;stroke-linecap:round;stroke-dasharray:none;stroke-opacity:1"
           id="path33"
           transform="rotate(158.29273)"
           sodipodi:type="arc"
           sodipodi:cx="-128.33453"
           sodipodi:cy="-265.71875"
           sodipodi:rx="20.42552"
           sodipodi:ry="23.88999"
           sodipodi:start="1.1833272"
           sodipodi:end="3.683473"
           sodipodi:arc-type="arc"
           d="m -120.61683,-243.59977 a 20.42552,23.88999 0 0 1 -23.23168,-6.57945 20.42552,23.88999 0 0 1 -1.98539,-27.86074"
           sodipodi:open="true" />
        <path
           style="fill:none;stroke:#000000;stroke-width:5.01863;stroke-linecap:round;stroke-dasharray:none;stroke-opacity:1"
           id="path34"
           transform="matrix(0.85886171,-0.51220753,0.61276735,0.79026336,0,0)"
           sodipodi:type="arc"
           sodipodi:cx="71.267075"
           sodipodi:cy="317.72366"
           sodipodi:rx="13.816558"
           sodipodi:ry="21.635365"
           sodipodi:start="1.8021378"
           sodipodi:end="4.1690316"
           sodipodi:arc-type="arc"
           d="M 68.099166,338.78266 A 13.816558,21.635365 0 0 1 57.618313,321.08528 13.816558,21.635365 0 0 1 64.123738,299.20427"
           sodipodi:open="true" />
      </g>
      <path
         style="fill:none;stroke:#000000;stroke-width:5.81552;stroke-linecap:round;stroke-dasharray:none;stroke-opacity:1"
         id="path32"
         transform="matrix(0.99754173,0.07007487,0.01606327,-0.99987098,0,0)"
         sodipodi:type="arc"
         sodipodi:cx="387.62845"
         sodipodi:cy="11.280653"
         sodipodi:rx="86.92009"
         sodipodi:ry="117.6822"
         sodipodi:start="0.56925502"
         sodipodi:end="4.5003381"
         sodipodi:arc-type="arc"
         d="M 460.84148,74.711911 A 86.92009,117.6822 0 0 1 361.21044,123.39565 86.92009,117.6822 0 0 1 300.81008,5.5888895 86.92009,117.6822 0 0 1 369.33479,-103.76562"
         sodipodi:open="true" />
      <path
         style="fill:none;stroke:#000000;stroke-width:5.75311;stroke-linecap:round;stroke-dasharray:none;stroke-opacity:1"
         id="path35"
         transform="matrix(0.95626313,0.29250781,-0.62286902,0.78232613,0,0)"
         sodipodi:type="arc"
         sodipodi:cx="569.29376"
         sodipodi:cy="-33.128658"
         sodipodi:rx="5.9368949"
         sodipodi:ry="43.472397"
         sodipodi:start="1.8021378"
         sodipodi:end="4.1690316"
         sodipodi:open="true"
         sodipodi:arc-type="arc"
         d="m 567.93253,9.1856206 a 5.9368949,43.472397 0 0 1 -4.50356,-35.5597166 5.9368949,43.472397 0 0 1 2.79534,-43.965965" />
      <g
         id="g37"
         transform="matrix(1.8998783,0,0,1.8998783,-46.02027,-78.961582)">
        <path
           style="opacity:1;fill:none;stroke:#000000;stroke-width:4.99999;stroke-linecap:round;stroke-dasharray:none;stroke-opacity:1"
           id="path36"
           transform="rotate(-14.853908)"
           sodipodi:type="arc"
           sodipodi:cx="83.793236"
           sodipodi:cy="143.3114"
           sodipodi:rx="61.912498"
           sodipodi:ry="45.508331"
           sodipodi:start="1.5707963"
           sodipodi:end="4.712389"
           sodipodi:arc-type="arc"
           d="M 83.793236,188.81973 A 61.912498,45.508331 0 0 1 30.17544,166.06557 61.912498,45.508331 0 0 1 30.175439,120.55724 61.912498,45.508331 0 0 1 83.793236,97.80307"
           sodipodi:open="true" />
        <path
           style="opacity:1;fill:none;stroke:#000000;stroke-width:4.99999;stroke-linecap:round;stroke-dasharray:none;stroke-opacity:1"
           id="path37"
           transform="rotate(-33.859325)"
           sodipodi:type="arc"
           sodipodi:cx="52.112114"
           sodipodi:cy="90.546822"
           sodipodi:rx="17.859375"
           sodipodi:ry="30.267351"
           sodipodi:start="6.2456588"
           sodipodi:end="1.8422794"
           sodipodi:arc-type="arc"
           d="m 69.958915,89.41126 a 17.859375,30.267351 0 0 1 -6.778513,24.88944 17.859375,30.267351 0 0 1 -15.857467,5.40491"
           sodipodi:open="true" />
        <path
           style="fill:none;stroke:#000000;stroke-width:4.99999;stroke-linecap:round;stroke-dasharray:none;stroke-opacity:1"
           id="path37-3"
           transform="rotate(63.687814)"
           sodipodi:type="arc"
           sodipodi:cx="207.12131"
           sodipodi:cy="-73.776039"
           sodipodi:rx="17.859375"
           sodipodi:ry="30.267351"
           sodipodi:start="6.2456588"
           sodipodi:end="1.8422794"
           sodipodi:arc-type="arc"
           d="m 224.96811,-74.911601 a 17.859375,30.267351 0 0 1 -6.77851,24.889437 17.859375,30.267351 0 0 1 -15.85747,5.404912"
           sodipodi:open="true" />
      </g>
    </g>
  </g>
</svg>
