<?xml version="1.0" encoding="UTF-8" standalone="no"?>
<!-- Created with Inkscape (http://www.inkscape.org/) -->

<svg
   width="190.19568mm"
   height="279.36896mm"
   viewBox="0 0 190.19568 279.36896"
   version="1.1"
   id="svg1"
   inkscape:export-filename="Ć.png"
   inkscape:export-xdpi="96"
   inkscape:export-ydpi="96"
   xmlns:inkscape="http://www.inkscape.org/namespaces/inkscape"
   xmlns:sodipodi="http://sodipodi.sourceforge.net/DTD/sodipodi-0.dtd"
   xmlns="http://www.w3.org/2000/svg"
   xmlns:svg="http://www.w3.org/2000/svg">
  <sodipodi:namedview
     id="namedview1"
     pagecolor="#ffffff"
     bordercolor="#999999"
     borderopacity="1"
     inkscape:showpageshadow="2"
     inkscape:pageopacity="0"
     inkscape:pagecheckerboard="0"
     inkscape:deskcolor="#d1d1d1"
     inkscape:document-units="mm"
     inkscape:zoom="1.0520974"
     inkscape:cx="348.35179"
     inkscape:cy="614.48686"
     inkscape:window-width="2560"
     inkscape:window-height="1377"
     inkscape:window-x="-8"
     inkscape:window-y="-8"
     inkscape:window-maximized="1"
     inkscape:current-layer="g5" />
  <defs
     id="defs1" />
  <g
     inkscape:label="Warstwa 1"
     inkscape:groupmode="layer"
     id="layer1"
     transform="translate(-15.060006,-3.7110366)">
    <g
       id="g5"
       transform="rotate(14.853907,81.18205,-23.688991)"
       style="stroke-width:6.4;stroke-dasharray:none">
      <path
         style="fill:none;stroke:#000000;stroke-width:17.2399;stroke-linecap:round;stroke-dasharray:none;stroke-opacity:1"
         id="path34"
         transform="matrix(0.85886171,-0.51220753,0.61276735,0.79026336,0,0)"
         sodipodi:type="arc"
         sodipodi:cx="288.94717"
         sodipodi:cy="634.50806"
         sodipodi:rx="47.462315"
         sodipodi:ry="74.321297"
         sodipodi:start="1.8021378"
         sodipodi:end="4.1690316"
         sodipodi:arc-type="arc"
         d="m 278.06485,706.84941 a 47.462315,74.321297 0 0 1 -36.00358,-60.79362 47.462315,74.321297 0 0 1 22.34728,-75.16511"
         sodipodi:open="true" />
      <path
         style="fill:none;stroke:#000000;stroke-width:5.81552;stroke-linecap:round;stroke-dasharray:none;stroke-opacity:1"
         id="path32"
         transform="matrix(0.99754173,0.07007487,0.01606327,-0.99987098,0,0)"
         sodipodi:type="arc"
         sodipodi:cx="387.62845"
         sodipodi:cy="11.280653"
         sodipodi:rx="86.92009"
         sodipodi:ry="117.6822"
         sodipodi:start="0.56925502"
         sodipodi:end="4.5003381"
         sodipodi:arc-type="arc"
         d="M 460.84148,74.711911 A 86.92009,117.6822 0 0 1 361.21044,123.39565 86.92009,117.6822 0 0 1 300.81008,5.5888895 86.92009,117.6822 0 0 1 369.33479,-103.76562"
         sodipodi:open="true" />
      <path
         style="fill:none;stroke:#000000;stroke-width:5.75311;stroke-linecap:round;stroke-dasharray:none;stroke-opacity:1"
         id="path35"
         transform="matrix(0.95626313,0.29250781,-0.62286902,0.78232613,0,0)"
         sodipodi:type="arc"
         sodipodi:cx="569.29376"
         sodipodi:cy="-33.128658"
         sodipodi:rx="5.9368949"
         sodipodi:ry="43.472397"
         sodipodi:start="1.8021378"
         sodipodi:end="4.1690316"
         sodipodi:open="true"
         sodipodi:arc-type="arc"
         d="m 567.93253,9.1856206 a 5.9368949,43.472397 0 0 1 -4.50356,-35.5597166 5.9368949,43.472397 0 0 1 2.79534,-43.965965" />
      <g
         id="g39"
         transform="matrix(1.3200019,0,0,1.3200019,-65.528164,-23.704766)">
        <g
           id="g38"
           transform="rotate(8.3809738,-294.50234,2007.1489)"
           style="stroke-width:5;stroke-dasharray:none">
          <path
             style="fill:none;stroke:#000000;stroke-width:10.9265;stroke-linecap:round;stroke-dasharray:none;stroke-opacity:1"
             id="path33"
             transform="rotate(158.29273)"
             sodipodi:type="arc"
             sodipodi:cx="177.20004"
             sodipodi:cy="24.79434"
             sodipodi:rx="34.798859"
             sodipodi:ry="52.206814"
             sodipodi:start="0.73683837"
             sodipodi:end="4.3209924"
             sodipodi:arc-type="arc"
             d="M 202.97196,59.874697 A 34.798859,52.206814 0 0 1 164.91655,73.640539 34.798859,52.206814 0 0 1 142.40527,25.594027 34.798859,52.206814 0 0 1 163.92498,-23.464448"
             sodipodi:open="true" />
          <path
             style="fill:none;stroke:#000000;stroke-width:10.9265;stroke-linecap:round;stroke-dasharray:none;stroke-opacity:1"
             id="path33-7"
             transform="rotate(-21.70727)"
             sodipodi:type="arc"
             sodipodi:cx="-149.45551"
             sodipodi:cy="70.885017"
             sodipodi:rx="34.798859"
             sodipodi:ry="52.206814"
             sodipodi:start="0.73683837"
             sodipodi:end="4.3209924"
             sodipodi:arc-type="arc"
             d="m -123.68359,105.96537 a 34.798859,52.206814 0 0 1 -38.05541,13.76585 34.798859,52.206814 0 0 1 -22.51128,-48.046516 34.798859,52.206814 0 0 1 21.51971,-49.058475"
             sodipodi:open="true" />
        </g>
        <path
           style="fill:none;stroke:#000000;stroke-width:6.96543;stroke-linecap:round;stroke-dasharray:none;stroke-opacity:1"
           id="path35-0"
           transform="matrix(0.71145827,0.70272835,-0.66092972,0.7504478,0,0)"
           sodipodi:type="arc"
           sodipodi:cx="175.85228"
           sodipodi:cy="-87.335754"
           sodipodi:rx="7.0762653"
           sodipodi:ry="53.463657"
           sodipodi:start="1.8021378"
           sodipodi:end="4.1690316"
           sodipodi:open="true"
           sodipodi:arc-type="arc"
           d="m 174.22981,-35.296385 a 7.0762653,53.463657 0 0 1 -5.36786,-43.732406 7.0762653,53.463657 0 0 1 3.33181,-54.070659" />
        <path
           style="fill:none;stroke:#000000;stroke-width:8.13214;stroke-linecap:round;stroke-dasharray:none;stroke-opacity:1"
           id="path35-0-0"
           transform="matrix(0.6696093,0.74271353,-0.72992796,0.68352409,0,0)"
           sodipodi:type="arc"
           sodipodi:cx="186.37265"
           sodipodi:cy="-74.602158"
           sodipodi:rx="8.2483158"
           sodipodi:ry="62.51894"
           sodipodi:start="1.8021378"
           sodipodi:end="4.1690316"
           sodipodi:open="true"
           sodipodi:arc-type="arc"
           d="m 184.48145,-13.748741 a 8.2483158,62.51894 0 0 1 -6.25694,-51.139481 8.2483158,62.51894 0 0 1 3.88366,-63.228758" />
      </g>
      <path
         style="fill:none;stroke:#000000;stroke-width:9.49937;stroke-linecap:round;stroke-dasharray:none;stroke-opacity:1"
         id="path36"
         transform="rotate(-14.853908)"
         sodipodi:type="arc"
         sodipodi:cx="-503.38977"
         sodipodi:cy="84.622597"
         sodipodi:rx="117.62621"
         sodipodi:ry="86.460289"
         sodipodi:start="1.5707963"
         sodipodi:end="4.712389"
         sodipodi:arc-type="arc"
         d="m -503.38977,171.08289 a 117.62621,86.460289 0 0 1 -101.86729,-43.23015 117.62621,86.460289 0 0 1 0,-86.460288 117.62621,86.460289 0 0 1 101.86729,-43.2301443"
         sodipodi:open="true" />
      <path
         style="fill:none;stroke:#000000;stroke-width:9.49937;stroke-linecap:round;stroke-dasharray:none;stroke-opacity:1"
         id="path37"
         transform="rotate(-33.859325)"
         sodipodi:type="arc"
         sodipodi:cx="-466.3508"
         sodipodi:cy="-221.17073"
         sodipodi:rx="33.930641"
         sodipodi:ry="57.504284"
         sodipodi:start="6.2456588"
         sodipodi:end="1.8422794"
         sodipodi:arc-type="arc"
         d="m -432.44405,-223.32816 a 33.930641,57.504284 0 0 1 -12.87835,47.2869 33.930641,57.504284 0 0 1 -30.12726,10.26868"
         sodipodi:open="true" />
      <path
         style="fill:none;stroke:#000000;stroke-width:9.49937;stroke-linecap:round;stroke-dasharray:none;stroke-opacity:1"
         id="path37-3"
         transform="rotate(63.687813)"
         sodipodi:type="arc"
         sodipodi:cx="77.967911"
         sodipodi:cy="471.93781"
         sodipodi:rx="33.930637"
         sodipodi:ry="57.504284"
         sodipodi:start="6.2456588"
         sodipodi:end="1.8422794"
         sodipodi:arc-type="arc"
         d="m 111.87466,469.78038 a 33.930637,57.504284 0 0 1 -12.878349,47.2869 33.930637,57.504284 0 0 1 -30.127256,10.26867"
         sodipodi:open="true" />
      <ellipse
         style="opacity:1;fill:#000000;stroke:#000000;stroke-width:1.69908;stroke-linecap:round;stroke-dasharray:none;stroke-opacity:1"
         id="path38"
         transform="rotate(-14.853908)"
         cx="-555.20062"
         cy="79.957893"
         rx="11.952291"
         ry="12.079442"
         inkscape:export-filename="Ę.png"
         inkscape:export-xdpi="96"
         inkscape:export-ydpi="96" />
    </g>
  </g>
</svg>
