<?xml version="1.0" encoding="UTF-8" standalone="no"?>
<!-- Created with Inkscape (http://www.inkscape.org/) -->

<svg
   width="155.83839mm"
   height="260.70731mm"
   viewBox="0 0 155.83839 260.70731"
   version="1.1"
   id="svg1"
   inkscape:export-filename="Ć.png"
   inkscape:export-xdpi="96"
   inkscape:export-ydpi="96"
   xmlns:inkscape="http://www.inkscape.org/namespaces/inkscape"
   xmlns:sodipodi="http://sodipodi.sourceforge.net/DTD/sodipodi-0.dtd"
   xmlns="http://www.w3.org/2000/svg"
   xmlns:svg="http://www.w3.org/2000/svg">
  <sodipodi:namedview
     id="namedview1"
     pagecolor="#ffffff"
     bordercolor="#999999"
     borderopacity="1"
     inkscape:showpageshadow="2"
     inkscape:pageopacity="0"
     inkscape:pagecheckerboard="0"
     inkscape:deskcolor="#d1d1d1"
     inkscape:document-units="mm"
     inkscape:zoom="1.0520974"
     inkscape:cx="348.35179"
     inkscape:cy="614.48686"
     inkscape:window-width="2560"
     inkscape:window-height="1377"
     inkscape:window-x="-8"
     inkscape:window-y="-8"
     inkscape:window-maximized="1"
     inkscape:current-layer="g5" />
  <defs
     id="defs1" />
  <g
     inkscape:label="Warstwa 1"
     inkscape:groupmode="layer"
     id="layer1"
     transform="translate(-27.068314,-13.582319)">
    <g
       id="g5"
       transform="rotate(14.853907,81.18205,-23.688991)"
       style="stroke-width:6.4;stroke-dasharray:none">
      <path
         style="fill:none;stroke:#000000;stroke-width:17.2399;stroke-linecap:round;stroke-dasharray:none;stroke-opacity:1"
         id="path34"
         transform="matrix(0.85886171,-0.51220753,0.61276735,0.79026336,0,0)"
         sodipodi:type="arc"
         sodipodi:cx="288.94717"
         sodipodi:cy="634.50806"
         sodipodi:rx="47.462315"
         sodipodi:ry="74.321297"
         sodipodi:start="1.8021378"
         sodipodi:end="4.1690316"
         sodipodi:arc-type="arc"
         d="m 278.06485,706.84941 a 47.462315,74.321297 0 0 1 -36.00358,-60.79362 47.462315,74.321297 0 0 1 22.34728,-75.16511"
         sodipodi:open="true" />
      <path
         style="fill:none;stroke:#000000;stroke-width:5.81552;stroke-linecap:round;stroke-dasharray:none;stroke-opacity:1"
         id="path32"
         transform="matrix(0.99754173,0.07007487,0.01606327,-0.99987098,0,0)"
         sodipodi:type="arc"
         sodipodi:cx="387.62845"
         sodipodi:cy="11.280653"
         sodipodi:rx="86.92009"
         sodipodi:ry="117.6822"
         sodipodi:start="0.56925502"
         sodipodi:end="4.5003381"
         sodipodi:arc-type="arc"
         d="M 460.84148,74.711911 A 86.92009,117.6822 0 0 1 361.21044,123.39565 86.92009,117.6822 0 0 1 300.81008,5.5888895 86.92009,117.6822 0 0 1 369.33479,-103.76562"
         sodipodi:open="true" />
      <path
         style="fill:none;stroke:#000000;stroke-width:5.75311;stroke-linecap:round;stroke-dasharray:none;stroke-opacity:1"
         id="path35"
         transform="matrix(0.95626313,0.29250781,-0.62286902,0.78232613,0,0)"
         sodipodi:type="arc"
         sodipodi:cx="569.29376"
         sodipodi:cy="-33.128658"
         sodipodi:rx="5.9368949"
         sodipodi:ry="43.472397"
         sodipodi:start="1.8021378"
         sodipodi:end="4.1690316"
         sodipodi:open="true"
         sodipodi:arc-type="arc"
         d="m 567.93253,9.1856206 a 5.9368949,43.472397 0 0 1 -4.50356,-35.5597166 5.9368949,43.472397 0 0 1 2.79534,-43.965965" />
      <path
         style="fill:none;stroke:#000000;stroke-width:7.35969;stroke-linecap:round;stroke-dasharray:none;stroke-opacity:1"
         id="path35-3"
         transform="matrix(0.957897,0.28711208,-0.62757207,0.77855848,0,0)"
         sodipodi:type="arc"
         sodipodi:cx="118.91774"
         sodipodi:cy="8.9922972"
         sodipodi:rx="6.5255675"
         sodipodi:ry="47.736641"
         sodipodi:start="1.8021378"
         sodipodi:end="4.1690316"
         sodipodi:open="true"
         sodipodi:arc-type="arc"
         d="m 117.42154,55.457219 a 6.5255675,47.736641 0 0 1 -4.95012,-39.047799 6.5255675,47.736641 0 0 1 3.07252,-48.278623" />
      <path
         style="fill:none;stroke:#000000;stroke-width:7.45527;stroke-linecap:round;stroke-dasharray:none;stroke-opacity:1"
         id="path35-3-0"
         transform="matrix(0.93063229,0.36595565,-0.55671965,0.83070044,0,0)"
         sodipodi:type="arc"
         sodipodi:cx="262.90585"
         sodipodi:cy="110.6834"
         sodipodi:rx="7.6410508"
         sodipodi:ry="56.72068"
         sodipodi:start="1.8021378"
         sodipodi:end="4.1690316"
         sodipodi:open="true"
         sodipodi:arc-type="arc"
         d="m 261.15389,165.89303 a 7.6410508,56.72068 0 0 1 -5.79629,-46.3966 7.6410508,56.72068 0 0 1 3.59773,-57.364664" />
      <path
         style="fill:none;stroke:#000000;stroke-width:7.65111;stroke-linecap:round;stroke-dasharray:none;stroke-opacity:1"
         id="path35-3-0-9"
         transform="matrix(0.93086567,0.36536161,-0.55727049,0.83033102,0,0)"
         sodipodi:type="arc"
         sodipodi:cx="294.69724"
         sodipodi:cy="119.33163"
         sodipodi:rx="7.8422127"
         sodipodi:ry="58.207317"
         sodipodi:start="1.8021378"
         sodipodi:end="4.1690316"
         sodipodi:open="true"
         sodipodi:arc-type="arc"
         d="m 292.89915,175.98828 a 7.8422127,58.207317 0 0 1 -5.94889,-47.61264 7.8422127,58.207317 0 0 1 3.69245,-58.868179" />
      <path
         style="fill:none;stroke:#000000;stroke-width:10.5377;stroke-linecap:round;stroke-dasharray:none;stroke-opacity:1"
         id="path35-5"
         transform="matrix(0.19947062,-0.97990381,0.67548477,0.73737394,0,0)"
         sodipodi:type="arc"
         sodipodi:cx="24.131664"
         sodipodi:cy="194.01248"
         sodipodi:rx="21.446959"
         sodipodi:ry="156.08917"
         sodipodi:start="1.8021378"
         sodipodi:end="4.1690316"
         sodipodi:open="true"
         sodipodi:arc-type="arc"
         d="M 19.214231,345.94339 A 21.446959,156.08917 0 0 1 2.94517,218.26498 21.446959,156.08917 0 0 1 13.043313,60.403631" />
      <g
         id="g38"
         transform="matrix(1.3059053,0.19239623,-0.19239623,1.3059053,-43.025551,396.55144)"
         style="stroke-width:5;stroke-dasharray:none">
        <path
           style="fill:none;stroke:#000000;stroke-width:10.9265;stroke-linecap:round;stroke-dasharray:none;stroke-opacity:1"
           id="path33"
           transform="rotate(158.29273)"
           sodipodi:type="arc"
           sodipodi:cx="177.20004"
           sodipodi:cy="24.79434"
           sodipodi:rx="34.798859"
           sodipodi:ry="52.206814"
           sodipodi:start="0.73683837"
           sodipodi:end="4.3209924"
           sodipodi:arc-type="arc"
           d="M 202.97196,59.874697 A 34.798859,52.206814 0 0 1 164.91655,73.640539 34.798859,52.206814 0 0 1 142.40527,25.594027 34.798859,52.206814 0 0 1 163.92498,-23.464448"
           sodipodi:open="true" />
        <path
           style="fill:none;stroke:#000000;stroke-width:10.9265;stroke-linecap:round;stroke-dasharray:none;stroke-opacity:1"
           id="path33-7"
           transform="rotate(-21.70727)"
           sodipodi:type="arc"
           sodipodi:cx="-149.45551"
           sodipodi:cy="70.885017"
           sodipodi:rx="34.798859"
           sodipodi:ry="52.206814"
           sodipodi:start="0.73683837"
           sodipodi:end="4.3209924"
           sodipodi:arc-type="arc"
           d="m -123.68359,105.96537 a 34.798859,52.206814 0 0 1 -38.05541,13.76585 34.798859,52.206814 0 0 1 -22.51128,-48.046516 34.798859,52.206814 0 0 1 21.51971,-49.058475"
           sodipodi:open="true" />
      </g>
      <path
         style="fill:none;stroke:#000000;stroke-width:9.19438;stroke-linecap:round;stroke-dasharray:none;stroke-opacity:1"
         id="path35-0"
         transform="matrix(0.71145827,0.70272835,-0.66092972,0.7504478,0,0)"
         sodipodi:type="arc"
         sodipodi:cx="118.9119"
         sodipodi:cy="405.94498"
         sodipodi:rx="9.3406839"
         sodipodi:ry="70.572128"
         sodipodi:start="1.8021378"
         sodipodi:end="4.1690316"
         sodipodi:open="true"
         sodipodi:arc-type="arc"
         d="m 116.77024,474.63704 a 9.3406839,70.572128 0 0 1 -7.08558,-57.72686 9.3406839,70.572128 0 0 1 4.39799,-71.37337" />
      <path
         style="fill:none;stroke:#000000;stroke-width:10.7344;stroke-linecap:round;stroke-dasharray:none;stroke-opacity:1"
         id="path35-0-0"
         transform="matrix(0.6696093,0.74271353,-0.72992795,0.68352409,0,0)"
         sodipodi:type="arc"
         sodipodi:cx="182.91745"
         sodipodi:cy="425.95087"
         sodipodi:rx="10.887793"
         sodipodi:ry="82.525124"
         sodipodi:start="1.8021378"
         sodipodi:end="4.1690316"
         sodipodi:open="true"
         sodipodi:arc-type="arc"
         d="m 180.42106,506.2775 a 10.887793,82.525124 0 0 1 -8.25917,-67.50422 10.887793,82.525124 0 0 1 5.12643,-83.46208" />
      <path
         style="fill:none;stroke:#000000;stroke-width:9.49937;stroke-linecap:round;stroke-dasharray:none;stroke-opacity:1"
         id="path36"
         transform="rotate(-14.853908)"
         sodipodi:type="arc"
         sodipodi:cx="-503.38977"
         sodipodi:cy="84.622597"
         sodipodi:rx="117.62621"
         sodipodi:ry="86.460289"
         sodipodi:start="1.5707963"
         sodipodi:end="4.712389"
         sodipodi:arc-type="arc"
         d="m -503.38977,171.08289 a 117.62621,86.460289 0 0 1 -101.86729,-43.23015 117.62621,86.460289 0 0 1 0,-86.460288 117.62621,86.460289 0 0 1 101.86729,-43.2301443"
         sodipodi:open="true" />
      <path
         style="fill:none;stroke:#000000;stroke-width:9.49937;stroke-linecap:round;stroke-dasharray:none;stroke-opacity:1"
         id="path37"
         transform="rotate(-33.859325)"
         sodipodi:type="arc"
         sodipodi:cx="-466.3508"
         sodipodi:cy="-221.17073"
         sodipodi:rx="33.930641"
         sodipodi:ry="57.504284"
         sodipodi:start="6.2456588"
         sodipodi:end="1.8422794"
         sodipodi:arc-type="arc"
         d="m -432.44405,-223.32816 a 33.930641,57.504284 0 0 1 -12.87835,47.2869 33.930641,57.504284 0 0 1 -30.12726,10.26868"
         sodipodi:open="true" />
      <path
         style="fill:none;stroke:#000000;stroke-width:9.49937;stroke-linecap:round;stroke-dasharray:none;stroke-opacity:1"
         id="path37-3"
         transform="rotate(63.687813)"
         sodipodi:type="arc"
         sodipodi:cx="77.967911"
         sodipodi:cy="471.93781"
         sodipodi:rx="33.930637"
         sodipodi:ry="57.504284"
         sodipodi:start="6.2456588"
         sodipodi:end="1.8422794"
         sodipodi:arc-type="arc"
         d="m 111.87466,469.78038 a 33.930637,57.504284 0 0 1 -12.878349,47.2869 33.930637,57.504284 0 0 1 -30.127256,10.26867"
         sodipodi:open="true" />
      <ellipse
         style="opacity:1;fill:#000000;stroke:#000000;stroke-width:1.69908;stroke-linecap:round;stroke-dasharray:none;stroke-opacity:1"
         id="path38"
         transform="rotate(-14.853908)"
         cx="-555.20062"
         cy="79.957893"
         rx="11.952291"
         ry="12.079442"
         inkscape:export-filename="Ę.png"
         inkscape:export-xdpi="96"
         inkscape:export-ydpi="96" />
    </g>
  </g>
</svg>
