<?xml version="1.0" encoding="UTF-8" standalone="no"?>
<!-- Created with Inkscape (http://www.inkscape.org/) -->

<svg
   width="182.79666mm"
   height="280.35394mm"
   viewBox="0 0 182.79666 280.35394"
   version="1.1"
   id="svg1"
   inkscape:export-filename="Ć.png"
   inkscape:export-xdpi="96"
   inkscape:export-ydpi="96"
   xmlns:inkscape="http://www.inkscape.org/namespaces/inkscape"
   xmlns:sodipodi="http://sodipodi.sourceforge.net/DTD/sodipodi-0.dtd"
   xmlns="http://www.w3.org/2000/svg"
   xmlns:svg="http://www.w3.org/2000/svg">
  <sodipodi:namedview
     id="namedview1"
     pagecolor="#ffffff"
     bordercolor="#999999"
     borderopacity="1"
     inkscape:showpageshadow="2"
     inkscape:pageopacity="0"
     inkscape:pagecheckerboard="0"
     inkscape:deskcolor="#d1d1d1"
     inkscape:document-units="mm"
     inkscape:zoom="1.0520974"
     inkscape:cx="348.35179"
     inkscape:cy="614.48686"
     inkscape:window-width="2560"
     inkscape:window-height="1377"
     inkscape:window-x="-8"
     inkscape:window-y="-8"
     inkscape:window-maximized="1"
     inkscape:current-layer="g5" />
  <defs
     id="defs1">
    <inkscape:path-effect
       effect="fillet_chamfer"
       id="path-effect40"
       is_visible="true"
       lpeversion="1"
       nodesatellites_param="F,0,0,1,0,0,0,1 @ F,0,0,1,0,0.86138684,0,1 @ F,0,0,1,0,0.82410845,0,1 @ F,0,0,1,0,0,0,1 @ F,0,0,1,0,0,0,1 @ F,0,0,1,0,0,0,1 @ F,0,0,1,0,0,0,1 @ F,0,0,1,0,0.90217117,0,1 @ F,0,0,1,0,0.77368543,0,1 @ F,0,0,1,0,0,0,1 @ F,0,0,1,0,0,0,1 @ F,0,0,1,0,0,0,1"
       radius="0"
       unit="px"
       method="auto"
       mode="F"
       chamfer_steps="1"
       flexible="false"
       use_knot_distance="true"
       apply_no_radius="true"
       apply_with_radius="true"
       only_selected="false"
       hide_knots="false" />
  </defs>
  <g
     inkscape:label="Warstwa 1"
     inkscape:groupmode="layer"
     id="layer1"
     transform="translate(-17.988095,-8.8738124)">
    <g
       id="g5"
       transform="rotate(14.853907,81.18205,-23.688991)"
       style="stroke-width:6.4;stroke-dasharray:none">
      <path
         style="fill:none;stroke:#000000;stroke-width:17.2399;stroke-linecap:round;stroke-dasharray:none;stroke-opacity:1"
         id="path34"
         transform="matrix(0.85886171,-0.51220753,0.61276735,0.79026336,0,0)"
         sodipodi:type="arc"
         sodipodi:cx="288.94717"
         sodipodi:cy="634.50806"
         sodipodi:rx="47.462315"
         sodipodi:ry="74.321297"
         sodipodi:start="1.8021378"
         sodipodi:end="4.1690316"
         sodipodi:arc-type="arc"
         d="m 278.06485,706.84941 a 47.462315,74.321297 0 0 1 -36.00358,-60.79362 47.462315,74.321297 0 0 1 22.34728,-75.16511"
         sodipodi:open="true" />
      <path
         style="fill:none;stroke:#000000;stroke-width:5.81552;stroke-linecap:round;stroke-dasharray:none;stroke-opacity:1"
         id="path32"
         transform="matrix(0.99754173,0.07007487,0.01606327,-0.99987098,0,0)"
         sodipodi:type="arc"
         sodipodi:cx="426.78241"
         sodipodi:cy="59.434761"
         sodipodi:rx="86.92009"
         sodipodi:ry="117.6822"
         sodipodi:start="0.56925502"
         sodipodi:end="4.5003381"
         sodipodi:arc-type="arc"
         d="M 499.99544,122.86602 A 86.92009,117.6822 0 0 1 400.3644,171.54976 86.92009,117.6822 0 0 1 339.96404,53.742998 86.92009,117.6822 0 0 1 408.48875,-55.611512"
         sodipodi:open="true" />
      <path
         style="fill:none;stroke:#000000;stroke-width:5.75311;stroke-linecap:round;stroke-dasharray:none;stroke-opacity:1"
         id="path35"
         transform="matrix(0.95626313,0.29250781,-0.62286902,0.78232613,0,0)"
         sodipodi:type="arc"
         sodipodi:cx="569.29376"
         sodipodi:cy="-33.128658"
         sodipodi:rx="5.9368949"
         sodipodi:ry="43.472397"
         sodipodi:start="1.8021378"
         sodipodi:end="4.1690316"
         sodipodi:open="true"
         sodipodi:arc-type="arc"
         d="m 567.93253,9.1856206 a 5.9368949,43.472397 0 0 1 -4.50356,-35.5597166 5.9368949,43.472397 0 0 1 2.79534,-43.965965" />
      <path
         style="fill:none;stroke:#000000;stroke-width:7.35969;stroke-linecap:round;stroke-dasharray:none;stroke-opacity:1"
         id="path35-3"
         transform="matrix(0.957897,0.28711208,-0.62757207,0.77855848,0,0)"
         sodipodi:type="arc"
         sodipodi:cx="253.85335"
         sodipodi:cy="-448.01492"
         sodipodi:rx="6.5255675"
         sodipodi:ry="47.736641"
         sodipodi:start="1.8021378"
         sodipodi:end="4.1690316"
         sodipodi:open="true"
         sodipodi:arc-type="arc"
         d="m 252.35714,-401.55 a 6.5255675,47.736641 0 0 1 -4.95011,-39.0478 6.5255675,47.736641 0 0 1 3.07252,-48.27862"
         inkscape:export-filename="G.png"
         inkscape:export-xdpi="96"
         inkscape:export-ydpi="96" />
      <path
         style="fill:none;stroke:#000000;stroke-width:7.45527;stroke-linecap:round;stroke-dasharray:none;stroke-opacity:1"
         id="path35-3-0"
         transform="matrix(0.93063229,0.36595565,-0.55671965,0.83070044,0,0)"
         sodipodi:type="arc"
         sodipodi:cx="436.02454"
         sodipodi:cy="-347.26624"
         sodipodi:rx="7.6410508"
         sodipodi:ry="56.72068"
         sodipodi:start="1.8021378"
         sodipodi:end="4.1690316"
         sodipodi:open="true"
         sodipodi:arc-type="arc"
         d="m 434.27257,-292.05661 a 7.6410508,56.72068 0 0 1 -5.79629,-46.3966 7.6410508,56.72068 0 0 1 3.59774,-57.36466" />
      <path
         style="fill:none;stroke:#000000;stroke-width:7.65111;stroke-linecap:round;stroke-dasharray:none;stroke-opacity:1"
         id="path35-3-0-9"
         transform="matrix(0.93086567,0.36536161,-0.55727049,0.83033102,0,0)"
         sodipodi:type="arc"
         sodipodi:cx="467.52921"
         sodipodi:cy="-338.57175"
         sodipodi:rx="7.8422127"
         sodipodi:ry="58.207317"
         sodipodi:start="1.8021378"
         sodipodi:end="4.1690316"
         sodipodi:open="true"
         sodipodi:arc-type="arc"
         d="m 465.73112,-281.91509 a 7.8422127,58.207317 0 0 1 -5.94889,-47.61264 7.8422127,58.207317 0 0 1 3.69245,-58.86818" />
      <path
         style="fill:none;stroke:#000000;stroke-width:10.5377;stroke-linecap:round;stroke-dasharray:none;stroke-opacity:1"
         id="path35-5"
         transform="matrix(0.19947062,-0.97990381,0.67548477,0.73737394,0,0)"
         sodipodi:type="arc"
         sodipodi:cx="668.09656"
         sodipodi:cy="619.79163"
         sodipodi:rx="21.446959"
         sodipodi:ry="156.08917"
         sodipodi:start="1.8021378"
         sodipodi:end="4.1690316"
         sodipodi:open="true"
         sodipodi:arc-type="arc"
         d="M 663.17912,771.72253 A 21.446959,156.08917 0 0 1 646.91006,644.04412 21.446959,156.08917 0 0 1 657.00821,486.18278" />
      <g
         id="g38"
         transform="matrix(1.3059053,0.19239623,-0.19239623,1.3059053,-43.025551,396.55144)"
         style="stroke-width:5;stroke-dasharray:none">
        <path
           style="fill:none;stroke:#000000;stroke-width:10.9265;stroke-linecap:round;stroke-dasharray:none;stroke-opacity:1"
           id="path33"
           transform="rotate(158.29273)"
           sodipodi:type="arc"
           sodipodi:cx="177.20004"
           sodipodi:cy="24.79434"
           sodipodi:rx="34.798859"
           sodipodi:ry="52.206814"
           sodipodi:start="0.73683837"
           sodipodi:end="4.3209924"
           sodipodi:arc-type="arc"
           d="M 202.97196,59.874697 A 34.798859,52.206814 0 0 1 164.91655,73.640539 34.798859,52.206814 0 0 1 142.40527,25.594027 34.798859,52.206814 0 0 1 163.92498,-23.464448"
           sodipodi:open="true" />
        <path
           style="fill:none;stroke:#000000;stroke-width:10.9265;stroke-linecap:round;stroke-dasharray:none;stroke-opacity:1"
           id="path33-7"
           transform="rotate(-21.70727)"
           sodipodi:type="arc"
           sodipodi:cx="-149.45551"
           sodipodi:cy="70.885017"
           sodipodi:rx="34.798859"
           sodipodi:ry="52.206814"
           sodipodi:start="0.73683837"
           sodipodi:end="4.3209924"
           sodipodi:arc-type="arc"
           d="m -123.68359,105.96537 a 34.798859,52.206814 0 0 1 -38.05541,13.76585 34.798859,52.206814 0 0 1 -22.51128,-48.046516 34.798859,52.206814 0 0 1 21.51971,-49.058475"
           sodipodi:open="true" />
      </g>
      <path
         style="fill:none;stroke:#000000;stroke-width:9.19438;stroke-linecap:round;stroke-dasharray:none;stroke-opacity:1"
         id="path35-0"
         transform="matrix(0.71145827,0.70272835,-0.66092972,0.7504478,0,0)"
         sodipodi:type="arc"
         sodipodi:cx="118.9119"
         sodipodi:cy="405.94498"
         sodipodi:rx="9.3406839"
         sodipodi:ry="70.572128"
         sodipodi:start="1.8021378"
         sodipodi:end="4.1690316"
         sodipodi:open="true"
         sodipodi:arc-type="arc"
         d="m 116.77024,474.63704 a 9.3406839,70.572128 0 0 1 -7.08558,-57.72686 9.3406839,70.572128 0 0 1 4.39799,-71.37337" />
      <path
         style="fill:none;stroke:#000000;stroke-width:10.7344;stroke-linecap:round;stroke-dasharray:none;stroke-opacity:1"
         id="path35-0-0"
         transform="matrix(0.6696093,0.74271353,-0.72992795,0.68352409,0,0)"
         sodipodi:type="arc"
         sodipodi:cx="182.91745"
         sodipodi:cy="425.95087"
         sodipodi:rx="10.887793"
         sodipodi:ry="82.525124"
         sodipodi:start="1.8021378"
         sodipodi:end="4.1690316"
         sodipodi:open="true"
         sodipodi:arc-type="arc"
         d="m 180.42106,506.2775 a 10.887793,82.525124 0 0 1 -8.25917,-67.50422 10.887793,82.525124 0 0 1 5.12643,-83.46208" />
      <path
         style="fill:none;stroke:#000000;stroke-width:9.49937;stroke-linecap:round;stroke-dasharray:none;stroke-opacity:1"
         id="path36"
         transform="rotate(-14.853908)"
         sodipodi:type="arc"
         sodipodi:cx="-503.38977"
         sodipodi:cy="84.622597"
         sodipodi:rx="117.62621"
         sodipodi:ry="86.460289"
         sodipodi:start="1.5707963"
         sodipodi:end="4.712389"
         sodipodi:arc-type="arc"
         d="m -503.38977,171.08289 a 117.62621,86.460289 0 0 1 -101.86729,-43.23015 117.62621,86.460289 0 0 1 0,-86.460288 117.62621,86.460289 0 0 1 101.86729,-43.2301443"
         sodipodi:open="true" />
      <path
         style="fill:none;stroke:#000000;stroke-width:9.49937;stroke-linecap:round;stroke-dasharray:none;stroke-opacity:1"
         id="path37"
         transform="rotate(-33.859325)"
         sodipodi:type="arc"
         sodipodi:cx="-466.3508"
         sodipodi:cy="-221.17073"
         sodipodi:rx="33.930641"
         sodipodi:ry="57.504284"
         sodipodi:start="6.2456588"
         sodipodi:end="1.8422794"
         sodipodi:arc-type="arc"
         d="m -432.44405,-223.32816 a 33.930641,57.504284 0 0 1 -12.87835,47.2869 33.930641,57.504284 0 0 1 -30.12726,10.26868"
         sodipodi:open="true" />
      <path
         style="fill:none;stroke:#000000;stroke-width:9.49937;stroke-linecap:round;stroke-dasharray:none;stroke-opacity:1"
         id="path37-3"
         transform="rotate(63.687813)"
         sodipodi:type="arc"
         sodipodi:cx="77.967911"
         sodipodi:cy="471.93781"
         sodipodi:rx="33.930637"
         sodipodi:ry="57.504284"
         sodipodi:start="6.2456588"
         sodipodi:end="1.8422794"
         sodipodi:arc-type="arc"
         d="m 111.87466,469.78038 a 33.930637,57.504284 0 0 1 -12.878349,47.2869 33.930637,57.504284 0 0 1 -30.127256,10.26867"
         sodipodi:open="true" />
      <ellipse
         style="opacity:1;fill:#000000;stroke:#000000;stroke-width:1.69908;stroke-linecap:round;stroke-dasharray:none;stroke-opacity:1"
         id="path38"
         transform="rotate(-14.853908)"
         cx="-555.20062"
         cy="79.957893"
         rx="11.952291"
         ry="12.079442"
         inkscape:export-filename="Ę.png"
         inkscape:export-xdpi="96"
         inkscape:export-ydpi="96" />
      <g
         id="g42"
         transform="matrix(1.1804802,0,0,1.1804802,-7.6596616,-11.414367)">
        <path
           style="fill:none;stroke:#000000;stroke-width:5.81552;stroke-linecap:round;stroke-dasharray:none;stroke-opacity:1"
           id="path32-5"
           transform="matrix(0.98951315,-0.14444281,-0.19770705,-0.98026115,0,0)"
           sodipodi:type="arc"
           sodipodi:cx="174.83902"
           sodipodi:cy="-180.89915"
           sodipodi:rx="138.76703"
           sodipodi:ry="122.54707"
           sodipodi:start="1.6831708"
           sodipodi:end="3.8824887"
           sodipodi:arc-type="arc"
           d="M 159.27795,-59.125031 A 138.76703,122.54707 0 0 1 44.907023,-137.8709 138.76703,122.54707 0 0 1 72.447815,-263.61222"
           sodipodi:open="true" />
        <path
           style="fill:none;stroke:#000000;stroke-width:5.16477;stroke-linecap:round;stroke-dasharray:none;stroke-opacity:1"
           id="path32-5-2"
           transform="matrix(-0.77359054,0.63368578,0.67456617,0.73821439,0,0)"
           sodipodi:type="arc"
           sodipodi:cx="-74.181908"
           sodipodi:cy="155.07724"
           sodipodi:rx="34.890419"
           sodipodi:ry="30.812208"
           sodipodi:start="1.1963673"
           sodipodi:end="3.8824887"
           sodipodi:arc-type="arc"
           d="m -61.421045,183.75467 a 34.890419,30.812208 0 0 1 -41.514455,-11.22454 34.890419,30.812208 0 0 1 3.009206,-38.24957"
           sodipodi:open="true" />
        <path
           style="color:#000000;fill:#000000;fill-rule:evenodd;stroke:none;stroke-width:0;stroke-dasharray:none"
           d="m 593.32812,120.22266 c -1.06107,-0.0291 -2.16327,0.28959 -3.02703,1.03102 -0.3603,0.30927 -0.28378,0.85946 0.0942,1.1484 l 0.005,0.004 c 0.36157,0.27643 0.87352,0.18811 1.25006,-0.0639 0.46892,-0.3138 1.02548,-0.44246 1.63119,-0.42582 0.8884,0.0244 1.84285,0.41042 2.49805,1.00976 1.14379,1.04629 1.58395,2.45239 1.48047,3.91797 -0.10349,1.46558 -0.78457,2.95753 -1.85157,4.00391 -0.17557,0.17217 -0.36088,0.33529 -0.55463,0.4883 -0.39075,0.30858 -0.53491,0.85834 -0.27915,1.28595 l 0.009,0.0149 c 0.21933,0.36671 0.69704,0.48896 1.04265,0.23794 0.34149,-0.24802 0.66523,-0.52141 0.96777,-0.8181 1.37796,-1.35133 2.2217,-3.19929 2.35547,-5.09375 0.13377,-1.89446 -0.47653,-3.86654 -2.02735,-5.28516 -0.97454,-0.89147 -2.27157,-1.41876 -3.59375,-1.45507 z"
           id="path41"
           transform="matrix(3.2614435,-0.86499417,0.86499417,3.2614435,-1885.9162,118.6058)"
           inkscape:original-d="m 593.32812,120.22266 c -1.32217,-0.0363 -2.70819,0.4675 -3.61718,1.65625 l 1.34375,1.02734 c 0.5555,-0.72647 1.33816,-1.01464 2.22656,-0.99023 0.8884,0.0244 1.84285,0.41042 2.49805,1.00976 1.14379,1.04629 1.58395,2.45239 1.48047,3.91797 -0.10349,1.46558 -0.78457,2.95753 -1.85157,4.00391 -0.38914,0.38162 -0.82615,0.71873 -1.29687,1 l 0.86914,1.45312 c 0.58316,-0.34845 1.12576,-0.76604 1.61328,-1.24414 1.37796,-1.35133 2.2217,-3.19929 2.35547,-5.09375 0.13377,-1.89446 -0.47653,-3.86654 -2.02735,-5.28516 -0.97454,-0.89147 -2.27157,-1.41876 -3.59375,-1.45507 z"
           inkscape:path-effect="#path-effect40" />
      </g>
    </g>
  </g>
</svg>
