<?xml version="1.0" encoding="UTF-8" standalone="no"?>
<!-- Created with Inkscape (http://www.inkscape.org/) -->

<svg
   width="134.10571mm"
   height="291.22687mm"
   viewBox="0 0 134.10571 291.22687"
   version="1.1"
   id="svg1"
   inkscape:export-filename="Ć.png"
   inkscape:export-xdpi="96"
   inkscape:export-ydpi="96"
   xmlns:inkscape="http://www.inkscape.org/namespaces/inkscape"
   xmlns:sodipodi="http://sodipodi.sourceforge.net/DTD/sodipodi-0.dtd"
   xmlns="http://www.w3.org/2000/svg"
   xmlns:svg="http://www.w3.org/2000/svg">
  <sodipodi:namedview
     id="namedview1"
     pagecolor="#ffffff"
     bordercolor="#999999"
     borderopacity="1"
     inkscape:showpageshadow="2"
     inkscape:pageopacity="0"
     inkscape:pagecheckerboard="0"
     inkscape:deskcolor="#d1d1d1"
     inkscape:document-units="mm"
     inkscape:zoom="1.0520974"
     inkscape:cx="348.35179"
     inkscape:cy="614.48686"
     inkscape:window-width="2560"
     inkscape:window-height="1377"
     inkscape:window-x="-8"
     inkscape:window-y="-8"
     inkscape:window-maximized="1"
     inkscape:current-layer="g5" />
  <defs
     id="defs1">
    <inkscape:path-effect
       effect="fillet_chamfer"
       id="path-effect40"
       is_visible="true"
       lpeversion="1"
       nodesatellites_param="F,0,0,1,0,0,0,1 @ F,0,0,1,0,0.86138684,0,1 @ F,0,0,1,0,0.82410845,0,1 @ F,0,0,1,0,0,0,1 @ F,0,0,1,0,0,0,1 @ F,0,0,1,0,0,0,1 @ F,0,0,1,0,0,0,1 @ F,0,0,1,0,0.90217117,0,1 @ F,0,0,1,0,0.77368543,0,1 @ F,0,0,1,0,0,0,1 @ F,0,0,1,0,0,0,1 @ F,0,0,1,0,0,0,1"
       radius="0"
       unit="px"
       method="auto"
       mode="F"
       chamfer_steps="1"
       flexible="false"
       use_knot_distance="true"
       apply_no_radius="true"
       apply_with_radius="true"
       only_selected="false"
       hide_knots="false" />
    <clipPath
       clipPathUnits="userSpaceOnUse"
       id="clipPath47">
      <rect
         style="opacity:1;fill:none;stroke:#000000;stroke-width:38.3729;stroke-linecap:round;stroke-dasharray:none;stroke-opacity:1"
         id="rect47"
         width="1003.5731"
         height="602.75775"
         x="-213.80844"
         y="-45.194942"
         ry="2.5071418" />
    </clipPath>
    <clipPath
       clipPathUnits="userSpaceOnUse"
       id="clipPath47-3">
      <rect
         style="opacity:1;fill:none;stroke:#000000;stroke-width:38.3729;stroke-linecap:round;stroke-dasharray:none;stroke-opacity:1"
         id="rect47-6"
         width="1003.5731"
         height="602.75775"
         x="-213.80844"
         y="-45.194942"
         ry="2.5071418" />
    </clipPath>
  </defs>
  <g
     inkscape:label="Warstwa 1"
     inkscape:groupmode="layer"
     id="layer1"
     transform="translate(-25.313601,-3.1513681)">
    <g
       id="g5"
       transform="rotate(14.853907,81.18205,-23.688991)"
       style="stroke-width:6.4;stroke-dasharray:none">
      <path
         style="fill:none;stroke:#000000;stroke-width:17.2399;stroke-linecap:round;stroke-dasharray:none;stroke-opacity:1"
         id="path34"
         transform="matrix(0.85886171,-0.51220753,0.61276735,0.79026336,0,0)"
         sodipodi:type="arc"
         sodipodi:cx="288.94717"
         sodipodi:cy="634.50806"
         sodipodi:rx="47.462315"
         sodipodi:ry="74.321297"
         sodipodi:start="1.8021378"
         sodipodi:end="4.1690316"
         sodipodi:arc-type="arc"
         d="m 278.06485,706.84941 a 47.462315,74.321297 0 0 1 -36.00358,-60.79362 47.462315,74.321297 0 0 1 22.34728,-75.16511"
         sodipodi:open="true" />
      <path
         style="fill:none;stroke:#000000;stroke-width:5.81552;stroke-linecap:round;stroke-dasharray:none;stroke-opacity:1"
         id="path32"
         transform="matrix(0.99754173,0.07007487,0.01606327,-0.99987098,0,0)"
         sodipodi:type="arc"
         sodipodi:cx="426.78241"
         sodipodi:cy="59.434761"
         sodipodi:rx="86.92009"
         sodipodi:ry="117.6822"
         sodipodi:start="0.56925502"
         sodipodi:end="4.5003381"
         sodipodi:arc-type="arc"
         d="M 499.99544,122.86602 A 86.92009,117.6822 0 0 1 400.3644,171.54976 86.92009,117.6822 0 0 1 339.96404,53.742998 86.92009,117.6822 0 0 1 408.48875,-55.611512"
         sodipodi:open="true" />
      <path
         style="fill:none;stroke:#000000;stroke-width:5.75311;stroke-linecap:round;stroke-dasharray:none;stroke-opacity:1"
         id="path35"
         transform="matrix(0.95626313,0.29250781,-0.62286902,0.78232613,0,0)"
         sodipodi:type="arc"
         sodipodi:cx="569.29376"
         sodipodi:cy="-33.128658"
         sodipodi:rx="5.9368949"
         sodipodi:ry="43.472397"
         sodipodi:start="1.8021378"
         sodipodi:end="4.1690316"
         sodipodi:open="true"
         sodipodi:arc-type="arc"
         d="m 567.93253,9.1856206 a 5.9368949,43.472397 0 0 1 -4.50356,-35.5597166 5.9368949,43.472397 0 0 1 2.79534,-43.965965" />
      <path
         style="fill:none;stroke:#000000;stroke-width:7.35969;stroke-linecap:round;stroke-dasharray:none;stroke-opacity:1"
         id="path35-3"
         transform="matrix(0.957897,0.28711208,-0.62757207,0.77855848,0,0)"
         sodipodi:type="arc"
         sodipodi:cx="253.85335"
         sodipodi:cy="-448.01492"
         sodipodi:rx="6.5255675"
         sodipodi:ry="47.736641"
         sodipodi:start="1.8021378"
         sodipodi:end="4.1690316"
         sodipodi:open="true"
         sodipodi:arc-type="arc"
         d="m 252.35714,-401.55 a 6.5255675,47.736641 0 0 1 -4.95011,-39.0478 6.5255675,47.736641 0 0 1 3.07252,-48.27862"
         inkscape:export-filename="G.png"
         inkscape:export-xdpi="96"
         inkscape:export-ydpi="96" />
      <path
         style="fill:none;stroke:#000000;stroke-width:7.45527;stroke-linecap:round;stroke-dasharray:none;stroke-opacity:1"
         id="path35-3-0"
         transform="matrix(0.93063229,0.36595565,-0.55671965,0.83070044,0,0)"
         sodipodi:type="arc"
         sodipodi:cx="436.02454"
         sodipodi:cy="-347.26624"
         sodipodi:rx="7.6410508"
         sodipodi:ry="56.72068"
         sodipodi:start="1.8021378"
         sodipodi:end="4.1690316"
         sodipodi:open="true"
         sodipodi:arc-type="arc"
         d="m 434.27257,-292.05661 a 7.6410508,56.72068 0 0 1 -5.79629,-46.3966 7.6410508,56.72068 0 0 1 3.59774,-57.36466" />
      <path
         style="fill:none;stroke:#000000;stroke-width:7.65111;stroke-linecap:round;stroke-dasharray:none;stroke-opacity:1"
         id="path35-3-0-9"
         transform="matrix(0.93086567,0.36536161,-0.55727049,0.83033102,0,0)"
         sodipodi:type="arc"
         sodipodi:cx="467.52921"
         sodipodi:cy="-338.57175"
         sodipodi:rx="7.8422127"
         sodipodi:ry="58.207317"
         sodipodi:start="1.8021378"
         sodipodi:end="4.1690316"
         sodipodi:open="true"
         sodipodi:arc-type="arc"
         d="m 465.73112,-281.91509 a 7.8422127,58.207317 0 0 1 -5.94889,-47.61264 7.8422127,58.207317 0 0 1 3.69245,-58.86818" />
      <path
         style="fill:none;stroke:#000000;stroke-width:10.5377;stroke-linecap:round;stroke-dasharray:none;stroke-opacity:1"
         id="path35-5"
         transform="matrix(0.19947062,-0.97990381,0.67548477,0.73737394,0,0)"
         sodipodi:type="arc"
         sodipodi:cx="668.09656"
         sodipodi:cy="619.79163"
         sodipodi:rx="21.446959"
         sodipodi:ry="156.08917"
         sodipodi:start="1.8021378"
         sodipodi:end="4.1690316"
         sodipodi:open="true"
         sodipodi:arc-type="arc"
         d="M 663.17912,771.72253 A 21.446959,156.08917 0 0 1 646.91006,644.04412 21.446959,156.08917 0 0 1 657.00821,486.18278" />
      <g
         id="g38"
         transform="matrix(1.3059053,0.19239623,-0.19239623,1.3059053,-43.025551,396.55144)"
         style="stroke-width:5;stroke-dasharray:none">
        <path
           style="fill:none;stroke:#000000;stroke-width:10.9265;stroke-linecap:round;stroke-dasharray:none;stroke-opacity:1"
           id="path33"
           transform="rotate(158.29273)"
           sodipodi:type="arc"
           sodipodi:cx="177.20004"
           sodipodi:cy="24.79434"
           sodipodi:rx="34.798859"
           sodipodi:ry="52.206814"
           sodipodi:start="0.73683837"
           sodipodi:end="4.3209924"
           sodipodi:arc-type="arc"
           d="M 202.97196,59.874697 A 34.798859,52.206814 0 0 1 164.91655,73.640539 34.798859,52.206814 0 0 1 142.40527,25.594027 34.798859,52.206814 0 0 1 163.92498,-23.464448"
           sodipodi:open="true" />
        <path
           style="fill:none;stroke:#000000;stroke-width:10.9265;stroke-linecap:round;stroke-dasharray:none;stroke-opacity:1"
           id="path33-7"
           transform="rotate(-21.70727)"
           sodipodi:type="arc"
           sodipodi:cx="-149.45551"
           sodipodi:cy="70.885017"
           sodipodi:rx="34.798859"
           sodipodi:ry="52.206814"
           sodipodi:start="0.73683837"
           sodipodi:end="4.3209924"
           sodipodi:arc-type="arc"
           d="m -123.68359,105.96537 a 34.798859,52.206814 0 0 1 -38.05541,13.76585 34.798859,52.206814 0 0 1 -22.51128,-48.046516 34.798859,52.206814 0 0 1 21.51971,-49.058475"
           sodipodi:open="true" />
      </g>
      <path
         style="fill:none;stroke:#000000;stroke-width:9.19438;stroke-linecap:round;stroke-dasharray:none;stroke-opacity:1"
         id="path35-0"
         transform="matrix(0.71145827,0.70272835,-0.66092972,0.7504478,0,0)"
         sodipodi:type="arc"
         sodipodi:cx="118.9119"
         sodipodi:cy="405.94498"
         sodipodi:rx="9.3406839"
         sodipodi:ry="70.572128"
         sodipodi:start="1.8021378"
         sodipodi:end="4.1690316"
         sodipodi:open="true"
         sodipodi:arc-type="arc"
         d="m 116.77024,474.63704 a 9.3406839,70.572128 0 0 1 -7.08558,-57.72686 9.3406839,70.572128 0 0 1 4.39799,-71.37337" />
      <path
         style="fill:none;stroke:#000000;stroke-width:10.7344;stroke-linecap:round;stroke-dasharray:none;stroke-opacity:1"
         id="path35-0-0"
         transform="matrix(0.6696093,0.74271353,-0.72992795,0.68352409,0,0)"
         sodipodi:type="arc"
         sodipodi:cx="182.91745"
         sodipodi:cy="425.95087"
         sodipodi:rx="10.887793"
         sodipodi:ry="82.525124"
         sodipodi:start="1.8021378"
         sodipodi:end="4.1690316"
         sodipodi:open="true"
         sodipodi:arc-type="arc"
         d="m 180.42106,506.2775 a 10.887793,82.525124 0 0 1 -8.25917,-67.50422 10.887793,82.525124 0 0 1 5.12643,-83.46208" />
      <path
         style="fill:none;stroke:#000000;stroke-width:9.49937;stroke-linecap:round;stroke-dasharray:none;stroke-opacity:1"
         id="path36"
         transform="rotate(-14.853908)"
         sodipodi:type="arc"
         sodipodi:cx="-503.38977"
         sodipodi:cy="84.622597"
         sodipodi:rx="117.62621"
         sodipodi:ry="86.460289"
         sodipodi:start="1.5707963"
         sodipodi:end="4.712389"
         sodipodi:arc-type="arc"
         d="m -503.38977,171.08289 a 117.62621,86.460289 0 0 1 -101.86729,-43.23015 117.62621,86.460289 0 0 1 0,-86.460288 117.62621,86.460289 0 0 1 101.86729,-43.2301443"
         sodipodi:open="true" />
      <path
         style="fill:none;stroke:#000000;stroke-width:9.49937;stroke-linecap:round;stroke-dasharray:none;stroke-opacity:1"
         id="path37"
         transform="rotate(-33.859325)"
         sodipodi:type="arc"
         sodipodi:cx="-466.3508"
         sodipodi:cy="-221.17073"
         sodipodi:rx="33.930641"
         sodipodi:ry="57.504284"
         sodipodi:start="6.2456588"
         sodipodi:end="1.8422794"
         sodipodi:arc-type="arc"
         d="m -432.44405,-223.32816 a 33.930641,57.504284 0 0 1 -12.87835,47.2869 33.930641,57.504284 0 0 1 -30.12726,10.26868"
         sodipodi:open="true" />
      <path
         style="fill:none;stroke:#000000;stroke-width:9.49937;stroke-linecap:round;stroke-dasharray:none;stroke-opacity:1"
         id="path37-3"
         transform="rotate(63.687813)"
         sodipodi:type="arc"
         sodipodi:cx="77.967911"
         sodipodi:cy="471.93781"
         sodipodi:rx="33.930637"
         sodipodi:ry="57.504284"
         sodipodi:start="6.2456588"
         sodipodi:end="1.8422794"
         sodipodi:arc-type="arc"
         d="m 111.87466,469.78038 a 33.930637,57.504284 0 0 1 -12.878349,47.2869 33.930637,57.504284 0 0 1 -30.127256,10.26867"
         sodipodi:open="true" />
      <ellipse
         style="opacity:1;fill:#000000;stroke:#000000;stroke-width:1.69908;stroke-linecap:round;stroke-dasharray:none;stroke-opacity:1"
         id="path38"
         transform="rotate(-14.853908)"
         cx="-555.20062"
         cy="79.957893"
         rx="11.952291"
         ry="12.079442"
         inkscape:export-filename="Ę.png"
         inkscape:export-xdpi="96"
         inkscape:export-ydpi="96" />
      <path
         style="fill:none;stroke:#000000;stroke-width:6.86511;stroke-linecap:round;stroke-dasharray:none;stroke-opacity:1"
         id="path32-5"
         transform="matrix(0.98951315,-0.14444281,-0.19770705,-0.98026115,0,0)"
         sodipodi:type="arc"
         sodipodi:cx="-193.39725"
         sodipodi:cy="-115.79569"
         sodipodi:rx="163.81174"
         sodipodi:ry="144.6644"
         sodipodi:start="1.6831708"
         sodipodi:end="3.8824887"
         sodipodi:arc-type="arc"
         d="M -211.76679,27.956254 A 163.81174,144.6644 0 0 1 -346.7794,-65.001683 163.81174,144.6644 0 0 1 -314.26804,-213.43683"
         sodipodi:open="true" />
      <path
         style="fill:none;stroke:#000000;stroke-width:6.09691;stroke-linecap:round;stroke-dasharray:none;stroke-opacity:1"
         id="path32-5-2"
         transform="matrix(-0.77359054,0.63368578,0.67456617,0.73821439,0,0)"
         sodipodi:type="arc"
         sodipodi:cx="193.45944"
         sodipodi:cy="-109.74936"
         sodipodi:rx="41.18745"
         sodipodi:ry="36.373203"
         sodipodi:start="1.1963673"
         sodipodi:end="3.8824887"
         sodipodi:arc-type="arc"
         d="m 208.52339,-75.896215 a 41.18745,36.373203 0 0 1 -49.007,-13.250354 41.18745,36.373203 0 0 1 3.55231,-45.152861"
         sodipodi:open="true" />
      <path
         style="color:#000000;fill:#000000;fill-rule:evenodd;stroke:none;stroke-width:0;stroke-dasharray:none"
         d="m 593.32812,120.22266 c -1.06107,-0.0291 -2.16327,0.28959 -3.02703,1.03102 -0.3603,0.30927 -0.28378,0.85946 0.0942,1.1484 l 0.005,0.004 c 0.36157,0.27643 0.87352,0.18811 1.25006,-0.0639 0.46892,-0.3138 1.02548,-0.44246 1.63119,-0.42582 0.8884,0.0244 1.84285,0.41042 2.49805,1.00976 1.14379,1.04629 1.58395,2.45239 1.48047,3.91797 -0.10349,1.46558 -0.78457,2.95753 -1.85157,4.00391 -0.17557,0.17217 -0.36088,0.33529 -0.55463,0.4883 -0.39075,0.30858 -0.53491,0.85834 -0.27915,1.28595 l 0.009,0.0149 c 0.21933,0.36671 0.69704,0.48896 1.04265,0.23794 0.34149,-0.24802 0.66523,-0.52141 0.96777,-0.8181 1.37796,-1.35133 2.2217,-3.19929 2.35547,-5.09375 0.13377,-1.89446 -0.47653,-3.86654 -2.02735,-5.28516 -0.97454,-0.89147 -2.27157,-1.41876 -3.59375,-1.45507 z"
         id="path41"
         transform="matrix(3.8500695,-1.0211085,1.0211085,3.8500695,-2641.2117,101.9361)"
         inkscape:original-d="m 593.32812,120.22266 c -1.32217,-0.0363 -2.70819,0.4675 -3.61718,1.65625 l 1.34375,1.02734 c 0.5555,-0.72647 1.33816,-1.01464 2.22656,-0.99023 0.8884,0.0244 1.84285,0.41042 2.49805,1.00976 1.14379,1.04629 1.58395,2.45239 1.48047,3.91797 -0.10349,1.46558 -0.78457,2.95753 -1.85157,4.00391 -0.38914,0.38162 -0.82615,0.71873 -1.29687,1 l 0.86914,1.45312 c 0.58316,-0.34845 1.12576,-0.76604 1.61328,-1.24414 1.37796,-1.35133 2.2217,-3.19929 2.35547,-5.09375 0.13377,-1.89446 -0.47653,-3.86654 -2.02735,-5.28516 -0.97454,-0.89147 -2.27157,-1.41876 -3.59375,-1.45507 z"
         inkscape:path-effect="#path-effect40" />
      <path
         style="fill:none;stroke:#000000;stroke-width:9.46993;stroke-linecap:round;stroke-dasharray:none;stroke-opacity:1"
         id="path42"
         transform="rotate(-14.853909)"
         sodipodi:type="arc"
         sodipodi:cx="959.72504"
         sodipodi:cy="271.41144"
         sodipodi:rx="69.469231"
         sodipodi:ry="140.09596"
         sodipodi:start="1.964481"
         sodipodi:end="4.3094005"
         sodipodi:arc-type="arc"
         d="M 933.07707,400.79033 A 69.469231,140.09596 0 0 1 890.25656,272.06315 69.469231,140.09596 0 0 1 932.48135,142.53813"
         sodipodi:open="true" />
      <path
         style="fill:none;stroke:#000000;stroke-width:9.46993;stroke-linecap:round;stroke-dasharray:none;stroke-opacity:1"
         id="path42-2"
         transform="matrix(-0.96658262,0.25635528,0.25635526,0.96658263,0,0)"
         sodipodi:type="arc"
         sodipodi:cx="-711.2821"
         sodipodi:cy="271.01852"
         sodipodi:rx="69.469231"
         sodipodi:ry="140.09596"
         sodipodi:start="1.964481"
         sodipodi:end="4.3094005"
         sodipodi:arc-type="arc"
         d="M -737.93007,400.39741 A 69.469231,140.09596 0 0 1 -780.75058,271.67023 69.469231,140.09596 0 0 1 -738.5258,142.14521"
         sodipodi:open="true" />
      <g
         id="g47"
         transform="matrix(1.3123038,0.02258401,0.02258401,1.3914667,-710.90009,312.26624)"
         inkscape:export-filename="K.png"
         inkscape:export-xdpi="96"
         inkscape:export-ydpi="96">
        <path
           sodipodi:type="star"
           style="opacity:1;fill:none;stroke:#000000;stroke-width:28.1726;stroke-linecap:round;stroke-dasharray:none;stroke-opacity:1"
           id="path43"
           inkscape:flatsided="true"
           sodipodi:sides="3"
           sodipodi:cx="273"
           sodipodi:cy="400"
           sodipodi:r1="366.53104"
           sodipodi:r2="317.4252"
           sodipodi:arg1="0.5259142"
           sodipodi:arg2="1.5731118"
           inkscape:rounded="0"
           inkscape:randomized="0"
           d="M 590,584 -44.848675,582.53005 273.84867,33.469946 Z"
           transform="matrix(0.22895178,-0.06072217,0.05676187,0.21401951,91.981826,150.57877)"
           inkscape:transform-center-x="-2.1912317e-06"
           clip-path="url(#clipPath47)" />
        <path
           sodipodi:type="star"
           style="fill:none;stroke:#000000;stroke-width:28.1726;stroke-linecap:round;stroke-dasharray:none;stroke-opacity:1"
           id="path43-9"
           inkscape:flatsided="true"
           sodipodi:sides="3"
           sodipodi:cx="273"
           sodipodi:cy="400"
           sodipodi:r1="366.53104"
           sodipodi:r2="317.4252"
           sodipodi:arg1="0.5259142"
           sodipodi:arg2="1.5731118"
           inkscape:rounded="0"
           inkscape:randomized="0"
           d="M 590,584 -44.848675,582.53005 273.84867,33.469946 Z"
           transform="matrix(0.22895178,-0.06072218,-0.05676186,-0.21401951,108.11578,212.17874)"
           inkscape:transform-center-x="-8.2328169e-06"
           clip-path="url(#clipPath47-3)"
           inkscape:transform-center-y="2.2062461e-06" />
      </g>
      <rect
         style="fill:none;stroke:#000000;stroke-width:4.52461;stroke-linecap:round;stroke-dasharray:none;stroke-opacity:1"
         id="rect42"
         width="64.198318"
         height="1.2206298"
         x="-475.91983"
         y="-212.40451"
         transform="rotate(-14.853911)"
         ry="0.61031491" />
      <g
         id="g49"
         transform="matrix(1.0523644,0,0,1.0523644,-5.5078847,-15.292539)"
         inkscape:export-filename="M.png"
         inkscape:export-xdpi="96"
         inkscape:export-ydpi="96">
        <rect
           style="fill:none;stroke:#000000;stroke-width:6.86207;stroke-linecap:round;stroke-dasharray:none;stroke-opacity:1"
           id="rect42-2"
           width="238.79155"
           height="2.119935"
           x="107.52563"
           y="23.288084"
           transform="rotate(45.146091)"
           ry="1.0599675"
           inkscape:export-filename="N.png"
           inkscape:export-xdpi="96"
           inkscape:export-ydpi="96" />
        <rect
           style="fill:none;stroke:#000000;stroke-width:7.60033;stroke-linecap:round;stroke-dasharray:none;stroke-opacity:1"
           id="rect42-2-3"
           width="86.632095"
           height="0.76909935"
           x="-61.735989"
           y="-108.32358"
           transform="rotate(135.14609)"
           ry="0.38454968"
           inkscape:export-filename="J.png"
           inkscape:export-xdpi="96"
           inkscape:export-ydpi="96" />
        <rect
           style="fill:none;stroke:#000000;stroke-width:6.32379;stroke-linecap:round;stroke-dasharray:none;stroke-opacity:1"
           id="rect42-2-3-7"
           width="72.731239"
           height="0.63420558"
           x="-45.348392"
           y="-183.44876"
           transform="matrix(-0.71968938,0.69429619,-0.7163342,-0.69775735,0,0)"
           ry="0.31710279"
           inkscape:export-filename="J.png"
           inkscape:export-xdpi="96"
           inkscape:export-ydpi="96" />
        <rect
           style="fill:none;stroke:#000000;stroke-width:6.32938;stroke-linecap:round;stroke-dasharray:none;stroke-opacity:1"
           id="rect42-2-3-7-2"
           width="42.798676"
           height="0.37319806"
           x="-129.97171"
           y="66.087425"
           transform="matrix(-0.69429619,-0.71968938,0.69775735,-0.7163342,0,0)"
           ry="0.18659903"
           inkscape:export-filename="J.png"
           inkscape:export-xdpi="96"
           inkscape:export-ydpi="96" />
      </g>
      <g
         id="g48"
         transform="translate(-620.46492,-183.36463)"
         inkscape:export-filename="L.png"
         inkscape:export-xdpi="96"
         inkscape:export-ydpi="96">
        <path
           style="fill:none;stroke:#000000;stroke-width:7.16986;stroke-linecap:round;stroke-dasharray:none;stroke-opacity:1"
           id="path47"
           transform="matrix(-0.25635525,-0.96658263,-0.96658264,0.25635521,0,0)"
           sodipodi:type="arc"
           sodipodi:cx="-71.268326"
           sodipodi:cy="-109.15916"
           sodipodi:rx="155.22815"
           sodipodi:ry="63.697365"
           sodipodi:start="1.5707963"
           sodipodi:end="4.712389"
           sodipodi:open="true"
           sodipodi:arc-type="arc"
           d="m -71.268326,-45.461792 a 155.22815,63.697365 0 0 1 -134.431524,-31.848682 155.22815,63.697365 0 0 1 0,-63.697366 155.22815,63.697365 0 0 1 134.431524,-31.84868" />
        <rect
           style="fill:none;stroke:#000000;stroke-width:7.3707;stroke-linecap:round;stroke-dasharray:none;stroke-opacity:1"
           id="rect48"
           width="36.441544"
           height="1.2002459"
           x="-45.892899"
           y="71.683365"
           transform="matrix(-0.96658263,0.25635525,0.25635528,0.96658262,0,0)"
           ry="0.60012293" />
        <rect
           style="fill:none;stroke:#000000;stroke-width:7.3707;stroke-linecap:round;stroke-dasharray:none;stroke-opacity:1"
           id="rect48-5"
           width="36.441544"
           height="1.2002459"
           x="172.34015"
           y="71.8638"
           transform="rotate(-14.853909)"
           ry="0.60012293" />
      </g>
    </g>
  </g>
</svg>
